<svg width="200" height="150" viewBox="0 0 200 150" xmlns="http://www.w3.org/2000/svg">
  <defs>
    <linearGradient id="repsrightBlue" x1="0%" y1="0%" x2="100%" y2="100%">
      <stop offset="0%" style="stop-color:#87CEEB;stop-opacity:1" />
      <stop offset="100%" style="stop-color:#40E0D0;stop-opacity:1" />
    </linearGradient>
    <linearGradient id="repsrightPurple" x1="0%" y1="0%" x2="100%" y2="100%">
      <stop offset="0%" style="stop-color:#E6E6FA;stop-opacity:1" />
      <stop offset="100%" style="stop-color:#FF00FF;stop-opacity:1" />
    </linearGradient>
  </defs>
  <g transform="translate(15, 20)">
    <path d="M 5 5 L 5 95 L 12 95 L 12 50 L 35 50 Q 50 50 50 35 Q 50 20 35 20 L 5 20 Z" fill="url(#repsrightBlue)" stroke="url(#repsrightBlue)" stroke-width="0"/>
    <rect x="5" y="5" width="50" height="18" rx="9" fill="url(#repsrightBlue)"/>
    <rect x="5" y="40" width="35" height="18" rx="9" fill="url(#repsrightBlue)"/>
    <path d="M 12 58 L 42 92 L 58 92 L 28 58 Z" fill="url(#repsrightBlue)"/>
    <circle cx="55" cy="90" r="7" fill="url(#repsrightBlue)"/>
  </g>
  <g transform="translate(105, 20)">
    <path d="M 5 5 L 5 95 L 12 95 L 12 50 L 35 50 Q 50 50 50 35 Q 50 20 35 20 L 5 20 Z" fill="url(#repsrightPurple)" stroke="url(#repsrightPurple)" stroke-width="0"/>
    <rect x="5" y="5" width="50" height="18" rx="9" fill="url(#repsrightPurple)"/>
    <rect x="5" y="40" width="35" height="18" rx="9" fill="url(#repsrightPurple)"/>
    <path d="M 12 58 L 42 92 L 58 92 L 28 58 Z" fill="url(#repsrightPurple)"/>
    <circle cx="55" cy="90" r="7" fill="url(#repsrightPurple)"/>
  </g>
</svg>
